<?xml version="1.0" encoding="UTF-8" standalone="no"?>
<svg
   xmlns:dc="http://purl.org/dc/elements/1.1/"
   xmlns:cc="http://creativecommons.org/ns#"
   xmlns:rdf="http://www.w3.org/1999/02/22-rdf-syntax-ns#"
   xmlns:svg="http://www.w3.org/2000/svg"
   xmlns="http://www.w3.org/2000/svg"
   xmlns:sodipodi="http://sodipodi.sourceforge.net/DTD/sodipodi-0.dtd"
   xmlns:inkscape="http://www.inkscape.org/namespaces/inkscape"
   inkscape:version="1.0 (4035a4f, 2020-05-01)"
   sodipodi:docname="cup.svg"
   id="svg8"
   version="1.1"
   viewBox="0 0 61.638138 56.814461"
>
  <defs
     id="defs2" />
  <sodipodi:namedview
     inkscape:window-maximized="0"
     inkscape:window-y="23"
     inkscape:window-x="0"
     inkscape:window-height="1035"
     inkscape:window-width="960"
     inkscape:snap-global="false"
     inkscape:snap-nodes="false"
     showgrid="false"
     inkscape:document-rotation="0"
     inkscape:current-layer="layer1"
     inkscape:document-units="mm"
     inkscape:cy="175.00931"
     inkscape:cx="274.86602"
     inkscape:zoom="1"
     inkscape:pageshadow="2"
     inkscape:pageopacity="0.0"
     borderopacity="1.0"
     bordercolor="#666666"
     pagecolor="#ffffff"
     id="base" />
  <metadata
     id="metadata5">
    <rdf:RDF>
      <cc:Work
         rdf:about="">
        <dc:format>image/svg+xml</dc:format>
        <dc:type
           rdf:resource="http://purl.org/dc/dcmitype/StillImage" />
      </cc:Work>
    </rdf:RDF>
  </metadata>
  <g
     transform="translate(-30.187496,-49.640728)"
     id="layer1"
     inkscape:groupmode="layer"
     inkscape:label="Layer 1">
    <path
       sodipodi:nodetypes="sssssssss"
       d="m 38.25601,58.171033 20.299858,-7.388546 c 5.73815,-2.08851 11.134107,-1.636631 13.222624,4.10152 l 10.694463,29.382794 c 2.088517,5.73815 -0.849636,12.039039 -6.587786,14.127555 L 55.585318,105.78289 C 49.847167,107.87141 43.546277,104.93326 41.45776,99.195114 L 30.763302,69.812317 c -2.088521,-5.73815 1.754576,-9.552766 7.492708,-11.641284 z"
       style="fill:#ba0c6e;fill-opacity:1;stroke-width:0.674266"
       id="rect835-6" />
    <g
       transform="rotate(-20,55.565471,70.795737)"
       id="g1073">
      <path
         id="rect835"
         style="fill:#ba0c6e;fill-opacity:1;stroke-width:0.379738"
         d="m 75.347855,59.252196 c -4.260337,0 -7.689972,3.430151 -7.689972,7.690487 v 20.756873 c 0,4.260334 3.429635,7.690487 7.689972,7.690487 h 4.462774 c 4.260337,0 7.690488,-3.430153 7.690488,-7.690487 V 66.942683 c 0,-4.260336 -3.430151,-7.690487 -7.690488,-7.690487 z m -2.242241,3.061311 h 4.462777 c 4.26034,0 5.86267,0.546989 6.466272,4.16047 l 0.16588,20.205485 c 0.03035,3.90011 -0.520438,5.740043 -4.779036,5.618263 l -5.786726,-0.165364 z"
         sodipodi:nodetypes="ssssssssscsccccc" />
      <path
         sodipodi:nodetypes="sssssssss"
         d="m 43.754895,53.003395 h 10.877926 c 6.10641,0 11.0224,2.270158 11.0224,8.376569 V 92.64848 c 0,6.106412 -3.495252,10.19364 -9.601662,10.19364 H 45.175633 c -6.106411,0 -12.44314,-4.087228 -12.44314,-10.19364 V 61.379964 c 0,-6.106411 4.915991,-8.376569 11.022402,-8.376569 z"
         style="fill:#d90282;fill-opacity:1;stroke-width:0.674267"
         id="rect835-6-9" />
      <path
         id="path898"
         style="fill:#fbcb05;fill-opacity:1;stroke-width:0.275416"
         d="m 73.089546,58.328327 c 0,2.295335 -8.319847,4.156072 -18.582897,4.156072 -10.26305,0 -18.582897,-1.860737 -18.582897,-4.156072 0,-2.295335 8.319847,-3.682493 18.582897,-3.682493 10.26305,0 18.582897,1.387158 18.582897,3.682493 z"
         sodipodi:nodetypes="sssss" />
      <path
         d="m 73.102085,58.391711 c -0.626081,1.840301 -3.305523,2.509474 -7.539343,3.219843 4.515802,-6.260158 -15.385945,-7.721154 -1.784751,-6.51376 1.984318,0.23679 10.041036,1.18654 9.324094,3.293917 z"
         style="fill:#fa9a41;fill-opacity:1;stroke-width:0.159054"
         id="path898-4"
         sodipodi:nodetypes="sccs" />
    </g>
  </g>
</svg>
